<svg xmlns="http://www.w3.org/2000/svg" viewBox="0 0 9.961 8.287">
    <defs>
        <style>
            .cls-1{fill:#fff}
        </style>
    </defs>
    <g id="right-arrow_2_" data-name="right-arrow (2)" transform="translate(0 -41.346)">
        <g id="Group_797" data-name="Group 797" transform="translate(0 41.346)">
            <path id="Path_948" d="M9.8 45.1l-3.6-3.6a.547.547 0 0 0-.771 0l-.327.327a.541.541 0 0 0-.159.385.552.552 0 0 0 .159.39l2.1 2.1H.538a.532.532 0 0 0-.538.544v.462a.552.552 0 0 0 .538.56h6.691l-2.122 2.115a.54.54 0 0 0 0 .766l.327.326a.547.547 0 0 0 .771 0l3.6-3.6a.55.55 0 0 0 0-.774z" class="cls-1" data-name="Path 948" transform="translate(0 -41.346)"/>
        </g>
    </g>
</svg>
