<svg  xmlns="http://www.w3.org/2000/svg" id="shopping-cart_1_" data-name="shopping-cart (1)" viewBox="0 0 21.706 23.357">
    <defs>
        <style>
            .cls-1{fill:#ff5d5d}
        </style>
    </defs>
    <path id="Path_147" d="M23.386 15.379h12.87a2.655 2.655 0 0 0 2.65-2.65V7.257a.061.061 0 0 0 0-.029v-.034-.029a.307.307 0 0 1-.01-.034c0-.01 0-.019-.01-.029s0-.019-.01-.029a.234.234 0 0 1-.014-.034.1.1 0 0 0-.014-.024l-.014-.029c0-.01-.01-.014-.014-.024s-.014-.019-.019-.029a.084.084 0 0 0-.019-.024c0-.01-.014-.014-.019-.024s-.014-.014-.019-.024-.014-.014-.019-.019l-.024-.024c-.01 0-.014-.014-.024-.019s-.019-.014-.029-.019l-.024-.014a.1.1 0 0 1-.029-.019l-.029-.014-.029-.014-.044-.019c-.01 0-.019 0-.029-.01a.089.089 0 0 0-.034-.01.208.208 0 0 1-.024 0 .106.106 0 0 0-.038 0h-.019L22.038 4.42V2.144a.3.3 0 0 0 0-.067.036.036 0 0 0 0-.019v-.043c0-.014 0-.024-.01-.038s0-.014 0-.024l-.014-.043v-.019a.144.144 0 0 0-.019-.038s0-.014-.01-.019a.1.1 0 0 0-.019-.029c0-.01-.01-.014-.014-.024s-.01-.014-.014-.024-.014-.019-.019-.029l-.014-.014-.029-.029-.014-.014a.209.209 0 0 0-.062-.031l-.019-.014c-.005-.004-.019-.014-.029-.024a.443.443 0 0 0-.038-.024s-.01 0-.014-.01l-.062-.029L18.1.052a.649.649 0 0 0-.5 1.2l3.139 1.325v14.2a2.653 2.653 0 0 0 2.307 2.623 2.615 2.615 0 1 0 4.854 1.341 2.567 2.567 0 0 0-.36-1.32h5.828a2.58 2.58 0 0 0-.36 1.32 2.616 2.616 0 1 0 2.616-2.616H23.386a1.355 1.355 0 0 1-1.354-1.354v-1.757a2.68 2.68 0 0 0 1.354.365zm3.226 5.357a1.32 1.32 0 1 1-1.32-1.32 1.322 1.322 0 0 1 1.32 1.32zm10.34 0a1.32 1.32 0 1 1-1.32-1.32 1.322 1.322 0 0 1 1.32 1.32zm-.7-6.653H23.386a1.355 1.355 0 0 1-1.354-1.354v-7L37.61 7.871v4.853a1.356 1.356 0 0 1-1.354 1.359z" class="cls-1" data-name="Path 147" transform="translate(-17.2)"/>
</svg>
