<svg xmlns="http://www.w3.org/2000/svg" viewBox="0 0 22.814 20.298">
    <path id="heart" d="M11.407 20.3a1.338 1.338 0 0 1-.882-.331c-.925-.809-1.81-1.569-2.594-2.234a48.246 48.246 0 0 1-5.664-5.317A8.492 8.492 0 0 1 0 6.856a7.131 7.131 0 0 1 1.81-4.87A6.135 6.135 0 0 1 6.373 0a5.739 5.739 0 0 1 3.585 1.237 7.334 7.334 0 0 1 1.449 1.513 7.335 7.335 0 0 1 1.449-1.513A5.739 5.739 0 0 1 16.441 0 6.135 6.135 0 0 1 21 1.986a7.131 7.131 0 0 1 1.81 4.87 8.491 8.491 0 0 1-2.263 5.558 48.241 48.241 0 0 1-5.664 5.316c-.785.669-1.675 1.428-2.6 2.235a1.339 1.339 0 0 1-.882.331zM6.373 1.337a4.813 4.813 0 0 0-3.581 1.555 5.8 5.8 0 0 0-1.456 3.964 7.145 7.145 0 0 0 1.955 4.706 47.478 47.478 0 0 0 5.5 5.152c.787.671 1.679 1.431 2.607 2.243.934-.813 1.827-1.575 2.616-2.247a47.489 47.489 0 0 0 5.5-5.152 7.145 7.145 0 0 0 1.955-4.706 5.8 5.8 0 0 0-1.456-3.964 4.813 4.813 0 0 0-3.581-1.556 4.432 4.432 0 0 0-2.767.958 6.485 6.485 0 0 0-1.542 1.784.844.844 0 0 1-1.449 0A6.479 6.479 0 0 0 9.14 2.295a4.432 4.432 0 0 0-2.767-.958zm0 0"/>
</svg>
