<?xml version="1.0" encoding="UTF-8"?>
<svg width="70px" height="13px" viewBox="0 0 70 13" version="1.1" xmlns="http://www.w3.org/2000/svg" xmlns:xlink="http://www.w3.org/1999/xlink">
    <!-- Generator: Sketch 44.1 (41455) - http://www.bohemiancoding.com/sketch -->
    <title>Combined Shape</title>
    <desc>Created with Sketch.</desc>
    <defs>
        <path d="M28,0 L42,0 L42,13 L28,13 L28,0 Z M34.99995,10.8889415 L37.8735303,12.3996721 C38.0234896,12.4785104 38.1952561,12.5057155 38.3622382,12.4770758 C38.781575,12.4051539 39.0632104,12.0069101 38.9912885,11.5875733 L38.4424835,8.38779449 L40.7672589,6.12169859 C40.8885785,6.0034412 40.9675308,5.84848847 40.9918932,5.68082889 C41.0530736,5.2597908 40.7613513,4.86887546 40.3403132,4.80769504 L37.1275527,4.34085361 L35.6907625,1.42959872 C35.6157829,1.27767337 35.4928117,1.15470219 35.3408864,1.07972255 C34.9593611,0.89142859 34.4974314,1.04807349 34.3091374,1.42959872 L32.8723473,4.34085361 L29.6595867,4.80769504 C29.4919272,4.83205741 29.3369744,4.91100976 29.218717,5.03232937 C28.9217411,5.3369954 28.9279751,5.82472261 29.2326411,6.12169859 L31.5574165,8.38779449 L31.0086114,11.5875733 C30.9799718,11.7545554 31.0071769,11.9263218 31.0860152,12.0762811 C31.2839991,12.452869 31.7497817,12.5976561 32.1263696,12.3996721 L34.99995,10.8889415 Z M14,0 L28,0 L28,13 L14,13 L14,0 Z M20.99995,10.8889415 L23.8735303,12.3996721 C24.0234896,12.4785104 24.1952561,12.5057155 24.3622382,12.4770758 C24.781575,12.4051539 25.0632104,12.0069101 24.9912885,11.5875733 L24.4424835,8.38779449 L26.7672589,6.12169859 C26.8885785,6.0034412 26.9675308,5.84848847 26.9918932,5.68082889 C27.0530736,5.2597908 26.7613513,4.86887546 26.3403132,4.80769504 L23.1275527,4.34085361 L21.6907625,1.42959872 C21.6157829,1.27767337 21.4928117,1.15470219 21.3408864,1.07972255 C20.9593611,0.89142859 20.4974314,1.04807349 20.3091374,1.42959872 L18.8723473,4.34085361 L15.6595867,4.80769504 C15.4919272,4.83205741 15.3369744,4.91100976 15.218717,5.03232937 C14.9217411,5.3369954 14.9279751,5.82472261 15.2326411,6.12169859 L17.5574165,8.38779449 L17.0086114,11.5875733 C16.9799718,11.7545554 17.0071769,11.9263218 17.0860152,12.0762811 C17.2839991,12.452869 17.7497817,12.5976561 18.1263696,12.3996721 L20.99995,10.8889415 Z M42,0 L56,0 L56,13 L42,13 L42,0 Z M48.99995,10.8889415 L51.8735303,12.3996721 C52.0234896,12.4785104 52.1952561,12.5057155 52.3622382,12.4770758 C52.781575,12.4051539 53.0632104,12.0069101 52.9912885,11.5875733 L52.4424835,8.38779449 L54.7672589,6.12169859 C54.8885785,6.0034412 54.9675308,5.84848847 54.9918932,5.68082889 C55.0530736,5.2597908 54.7613513,4.86887546 54.3403132,4.80769504 L51.1275527,4.34085361 L49.6907625,1.42959872 C49.6157829,1.27767337 49.4928117,1.15470219 49.3408864,1.07972255 C48.9593611,0.89142859 48.4974314,1.04807349 48.3091374,1.42959872 L46.8723473,4.34085361 L43.6595867,4.80769504 C43.4919272,4.83205741 43.3369744,4.91100976 43.218717,5.03232937 C42.9217411,5.3369954 42.9279751,5.82472261 43.2326411,6.12169859 L45.5574165,8.38779449 L45.0086114,11.5875733 C44.9799718,11.7545554 45.0071769,11.9263218 45.0860152,12.0762811 C45.2839991,12.452869 45.7497817,12.5976561 46.1263696,12.3996721 L48.99995,10.8889415 Z M56,0 L70,0 L70,13 L56,13 L56,0 Z M62.99995,10.8889415 L65.8735303,12.3996721 C66.0234896,12.4785104 66.1952561,12.5057155 66.3622382,12.4770758 C66.781575,12.4051539 67.0632104,12.0069101 66.9912885,11.5875733 L66.4424835,8.38779449 L68.7672589,6.12169859 C68.8885785,6.0034412 68.9675308,5.84848847 68.9918932,5.68082889 C69.0530736,5.2597908 68.7613513,4.86887546 68.3403132,4.80769504 L65.1275527,4.34085361 L63.6907625,1.42959872 C63.6157829,1.27767337 63.4928117,1.15470219 63.3408864,1.07972255 C62.9593611,0.89142859 62.4974314,1.04807349 62.3091374,1.42959872 L60.8723473,4.34085361 L57.6595867,4.80769504 C57.4919272,4.83205741 57.3369744,4.91100976 57.218717,5.03232937 C56.9217411,5.3369954 56.9279751,5.82472261 57.2326411,6.12169859 L59.5574165,8.38779449 L59.0086114,11.5875733 C58.9799718,11.7545554 59.0071769,11.9263218 59.0860152,12.0762811 C59.2839991,12.452869 59.7497817,12.5976561 60.1263696,12.3996721 L62.99995,10.8889415 Z M0,0 L14,0 L14,13 L0,13 L0,0 Z M6.99994998,10.8889415 L9.87353035,12.3996721 C10.0234896,12.4785104 10.1952561,12.5057155 10.3622382,12.4770758 C10.781575,12.4051539 11.0632104,12.0069101 10.9912885,11.5875733 L10.4424835,8.38779449 L12.7672589,6.12169859 C12.8885785,6.0034412 12.9675308,5.84848847 12.9918932,5.68082889 C13.0530736,5.2597908 12.7613513,4.86887546 12.3403132,4.80769504 L9.12755271,4.34085361 L7.69076253,1.42959872 C7.61578289,1.27767337 7.4928117,1.15470219 7.34088635,1.07972255 C6.95936112,0.89142859 6.49743139,1.04807349 6.30913743,1.42959872 L4.87234725,4.34085361 L1.65958673,4.80769504 C1.49192716,4.83205741 1.33697443,4.91100976 1.21871704,5.03232937 C0.921741057,5.3369954 0.927975073,5.82472261 1.2326411,6.12169859 L3.55741645,8.38779449 L3.00861144,11.5875733 C2.97997176,11.7545554 3.00717689,11.9263218 3.08601515,12.0762811 C3.28399914,12.452869 3.7497817,12.5976561 4.12636962,12.3996721 L6.99994998,10.8889415 Z" id="path-1"></path>
    </defs>
    <g id="Page-1" stroke="none" stroke-width="1" fill="none" fill-rule="evenodd">
        <g id="Combined-Shape">
            <use fill="#FFFFFF" fill-rule="evenodd" xlink:href="#path-1"></use>
            <path d="M28,0 L42,0 L42,13 L28,13 L28,0 Z M34.99995,10.8889415 L37.8735303,12.3996721 C38.0234896,12.4785104 38.1952561,12.5057155 38.3622382,12.4770758 C38.781575,12.4051539 39.0632104,12.0069101 38.9912885,11.5875733 L38.4424835,8.38779449 L40.7672589,6.12169859 C40.8885785,6.0034412 40.9675308,5.84848847 40.9918932,5.68082889 C41.0530736,5.2597908 40.7613513,4.86887546 40.3403132,4.80769504 L37.1275527,4.34085361 L35.6907625,1.42959872 C35.6157829,1.27767337 35.4928117,1.15470219 35.3408864,1.07972255 C34.9593611,0.89142859 34.4974314,1.04807349 34.3091374,1.42959872 L32.8723473,4.34085361 L29.6595867,4.80769504 C29.4919272,4.83205741 29.3369744,4.91100976 29.218717,5.03232937 C28.9217411,5.3369954 28.9279751,5.82472261 29.2326411,6.12169859 L31.5574165,8.38779449 L31.0086114,11.5875733 C30.9799718,11.7545554 31.0071769,11.9263218 31.0860152,12.0762811 C31.2839991,12.452869 31.7497817,12.5976561 32.1263696,12.3996721 L34.99995,10.8889415 Z M14,0 L28,0 L28,13 L14,13 L14,0 Z M20.99995,10.8889415 L23.8735303,12.3996721 C24.0234896,12.4785104 24.1952561,12.5057155 24.3622382,12.4770758 C24.781575,12.4051539 25.0632104,12.0069101 24.9912885,11.5875733 L24.4424835,8.38779449 L26.7672589,6.12169859 C26.8885785,6.0034412 26.9675308,5.84848847 26.9918932,5.68082889 C27.0530736,5.2597908 26.7613513,4.86887546 26.3403132,4.80769504 L23.1275527,4.34085361 L21.6907625,1.42959872 C21.6157829,1.27767337 21.4928117,1.15470219 21.3408864,1.07972255 C20.9593611,0.89142859 20.4974314,1.04807349 20.3091374,1.42959872 L18.8723473,4.34085361 L15.6595867,4.80769504 C15.4919272,4.83205741 15.3369744,4.91100976 15.218717,5.03232937 C14.9217411,5.3369954 14.9279751,5.82472261 15.2326411,6.12169859 L17.5574165,8.38779449 L17.0086114,11.5875733 C16.9799718,11.7545554 17.0071769,11.9263218 17.0860152,12.0762811 C17.2839991,12.452869 17.7497817,12.5976561 18.1263696,12.3996721 L20.99995,10.8889415 Z M42,0 L56,0 L56,13 L42,13 L42,0 Z M48.99995,10.8889415 L51.8735303,12.3996721 C52.0234896,12.4785104 52.1952561,12.5057155 52.3622382,12.4770758 C52.781575,12.4051539 53.0632104,12.0069101 52.9912885,11.5875733 L52.4424835,8.38779449 L54.7672589,6.12169859 C54.8885785,6.0034412 54.9675308,5.84848847 54.9918932,5.68082889 C55.0530736,5.2597908 54.7613513,4.86887546 54.3403132,4.80769504 L51.1275527,4.34085361 L49.6907625,1.42959872 C49.6157829,1.27767337 49.4928117,1.15470219 49.3408864,1.07972255 C48.9593611,0.89142859 48.4974314,1.04807349 48.3091374,1.42959872 L46.8723473,4.34085361 L43.6595867,4.80769504 C43.4919272,4.83205741 43.3369744,4.91100976 43.218717,5.03232937 C42.9217411,5.3369954 42.9279751,5.82472261 43.2326411,6.12169859 L45.5574165,8.38779449 L45.0086114,11.5875733 C44.9799718,11.7545554 45.0071769,11.9263218 45.0860152,12.0762811 C45.2839991,12.452869 45.7497817,12.5976561 46.1263696,12.3996721 L48.99995,10.8889415 Z M56,0 L70,0 L70,13 L56,13 L56,0 Z M62.99995,10.8889415 L65.8735303,12.3996721 C66.0234896,12.4785104 66.1952561,12.5057155 66.3622382,12.4770758 C66.781575,12.4051539 67.0632104,12.0069101 66.9912885,11.5875733 L66.4424835,8.38779449 L68.7672589,6.12169859 C68.8885785,6.0034412 68.9675308,5.84848847 68.9918932,5.68082889 C69.0530736,5.2597908 68.7613513,4.86887546 68.3403132,4.80769504 L65.1275527,4.34085361 L63.6907625,1.42959872 C63.6157829,1.27767337 63.4928117,1.15470219 63.3408864,1.07972255 C62.9593611,0.89142859 62.4974314,1.04807349 62.3091374,1.42959872 L60.8723473,4.34085361 L57.6595867,4.80769504 C57.4919272,4.83205741 57.3369744,4.91100976 57.218717,5.03232937 C56.9217411,5.3369954 56.9279751,5.82472261 57.2326411,6.12169859 L59.5574165,8.38779449 L59.0086114,11.5875733 C58.9799718,11.7545554 59.0071769,11.9263218 59.0860152,12.0762811 C59.2839991,12.452869 59.7497817,12.5976561 60.1263696,12.3996721 L62.99995,10.8889415 Z M0,0 L14,0 L14,13 L0,13 L0,0 Z M6.99994998,10.8889415 L9.87353035,12.3996721 C10.0234896,12.4785104 10.1952561,12.5057155 10.3622382,12.4770758 C10.781575,12.4051539 11.0632104,12.0069101 10.9912885,11.5875733 L10.4424835,8.38779449 L12.7672589,6.12169859 C12.8885785,6.0034412 12.9675308,5.84848847 12.9918932,5.68082889 C13.0530736,5.2597908 12.7613513,4.86887546 12.3403132,4.80769504 L9.12755271,4.34085361 L7.69076253,1.42959872 C7.61578289,1.27767337 7.4928117,1.15470219 7.34088635,1.07972255 C6.95936112,0.89142859 6.49743139,1.04807349 6.30913743,1.42959872 L4.87234725,4.34085361 L1.65958673,4.80769504 C1.49192716,4.83205741 1.33697443,4.91100976 1.21871704,5.03232937 C0.921741057,5.3369954 0.927975073,5.82472261 1.2326411,6.12169859 L3.55741645,8.38779449 L3.00861144,11.5875733 C2.97997176,11.7545554 3.00717689,11.9263218 3.08601515,12.0762811 C3.28399914,12.452869 3.7497817,12.5976561 4.12636962,12.3996721 L6.99994998,10.8889415 Z"></path>
        </g>
    </g>
</svg>