<svg xmlns="http://www.w3.org/2000/svg" id="coins-money-stack" viewBox="0 0 24.579 24.579">
  <path d="M21.25 7.208a2.483 2.483 0 0 0 .257-1.065V4.609C21.507 2.064 17.38 0 12.289 0S3.072 2.064 3.072 4.609a2.37 2.37 0 0 1 .037-.372C1.206 5.08 0 6.31 0 7.681v1.536c0 1.425 1.3 2.7 3.329 3.543a2.483 2.483 0 0 0-.257 1.065v1.536a2.642 2.642 0 0 0 .537 1.539 2.642 2.642 0 0 0-.537 1.536v1.534c0 2.544 4.127 4.609 9.217 4.609s9.217-2.064 9.217-4.609v-1.536a2.664 2.664 0 0 0-.554-1.56l-.009.011a2.816 2.816 0 0 0 .525-1.151c1.9-.845 3.11-2.073 3.11-3.444v-1.537c.001-1.425-1.295-2.7-3.328-3.545zM12.289.768c4.979 0 8.449 2.024 8.449 3.84s-3.47 3.84-8.449 3.84S3.84 6.424 3.84 4.609 7.31.768 12.289.768zM.768 7.681c0-.9.851-1.841 2.3-2.57v1.034c0 2.544 4.127 4.609 9.217 4.609a18.007 18.007 0 0 0 2.2-.138 14.792 14.792 0 0 1-5.275.906C4.238 11.521.768 9.5.768 7.681zm19.97 10.753c0 1.815-3.47 3.84-8.449 3.84s-8.449-2.025-8.449-3.84a1.83 1.83 0 0 1 .311-.911.033.033 0 0 1-.006-.007c1.547 1.46 4.613 2.454 8.144 2.454s6.587-1 8.131-2.465a1.822 1.822 0 0 1 .318.929zm-3.171-1.674a14.776 14.776 0 0 1-5.278.906c-4.979 0-8.449-2.025-8.449-3.84a1.723 1.723 0 0 1 .227-.786 14.563 14.563 0 0 0 2.475.587c1.146 1.892 4.658 3.273 8.82 3.273a17.847 17.847 0 0 0 2.211-.14zm-2.205-2.166a15.042 15.042 0 0 1-5.068-.821c4.331-.255 7.751-1.994 8.1-4.184a6.531 6.531 0 0 0 2.421-1.7c1.86.756 2.994 1.836 2.994 2.862.002 1.817-3.468 3.843-8.447 3.843z"/>
</svg>
