<svg xmlns="http://www.w3.org/2000/svg" viewBox="0 0 34.995 25.663">
    <g id="credit-card_3_" data-name="credit-card (3)" transform="translate(1 -67.267)">
        <g id="Group_1083" data-name="Group 1083" transform="translate(-1 67.267)">
            <g id="Group_1082" data-name="Group 1082">
                <path id="Path_1087" d="M31.078 67.267H1.916A2.888 2.888 0 0 0-1 70.183v19.83a2.888 2.888 0 0 0 2.916 2.917h29.163a2.888 2.888 0 0 0 2.916-2.916V70.183a2.888 2.888 0 0 0-2.917-2.916zM1.916 68.433h29.163a1.718 1.718 0 0 1 1.75 1.75v.583H.167v-.583a1.719 1.719 0 0 1 1.749-1.75zm30.912 7H.167v-3.5h32.661v3.5zm-1.75 16.331H1.916a1.718 1.718 0 0 1-1.75-1.75V76.6h32.662v13.414a1.719 1.719 0 0 1-1.75 1.749z" class="cls-1" data-name="Path 1087" transform="translate(1 -67.267)"/>
                <path id="Path_1088" d="M300.216 289.133h-10.5a.551.551 0 0 0-.583.583v5.832a.551.551 0 0 0 .583.583h10.5a.551.551 0 0 0 .583-.583v-5.832a.551.551 0 0 0-.583-.583zm-.583 5.833H290.3V290.3h9.332z" class="cls-1" data-name="Path 1088" transform="translate(-269.304 -273.969)"/>
            </g>
        </g>
    </g>
</svg>
