<svg xmlns="http://www.w3.org/2000/svg" id="growth_2_" data-name="growth (2)" viewBox="0 0 17.829 17.829">
    <defs>
        <style>
            .cls-1{fill:#707070}
        </style>
    </defs>
    <path id="Path_935" d="M17.726 5.247L14 .211a.522.522 0 0 0-.839 0L9.427 5.247a.522.522 0 0 0 .42.833h1.343V8.6a1.908 1.908 0 0 0-.876-.212h-.933a1.923 1.923 0 0 0-1.921 1.925V11.4a1.908 1.908 0 0 0-.876-.212h-.933A1.923 1.923 0 0 0 3.73 13.11v1.09a1.91 1.91 0 0 0-.876-.212h-.933A1.923 1.923 0 0 0 0 15.908v1.4a.522.522 0 0 0 .522.522h14.92a.522.522 0 0 0 .522-.522V6.08h1.343a.522.522 0 0 0 .42-.833zM1.045 15.908a.877.877 0 0 1 .876-.876h.932a.877.877 0 0 1 .876.876v.876H1.045zm3.73 0v-2.8a.877.877 0 0 1 .876-.876h.932a.877.877 0 0 1 .876.876v3.674H4.774zm3.73-2.8v-2.8a.877.877 0 0 1 .876-.876h.932a.877.877 0 0 1 .876.876v6.471H8.5zm6.937-8.075a.522.522 0 0 0-.522.522v11.229h-2.686V5.558a.522.522 0 0 0-.522-.522h-.828L13.577 1.4l2.693 3.635zm0 0" class="cls-1" data-name="Path 935"/>
</svg>
