<svg xmlns="http://www.w3.org/2000/svg" id="Group_117" data-name="Group 117" viewBox="0 0 166.986 49">
    <defs>
        <style>
            .cls-1{fill:#fb443f}.cls-2{fill:#454d4f}
        </style>
    </defs>
    <g id="Group_107" data-name="Group 107" transform="translate(94.439 3.515)">
        <path id="Path_104" d="M832.388 87.368a10 10 0 0 0-.7-4.376 2.686 2.686 0 0 0-2.619-1.344 10.36 10.36 0 0 0-1.5.115c-.551.069-.953.138-1.229.184v15.586h-4.14v-18.7a25.886 25.886 0 0 1 3.124-.7 24.323 24.323 0 0 1 4.076-.333 7.554 7.554 0 0 1 3.021.517 5.959 5.959 0 0 1 1.964 1.367 10.536 10.536 0 0 1 .953-.632 9.751 9.751 0 0 1 1.3-.609 12.266 12.266 0 0 1 1.516-.459 7.078 7.078 0 0 1 1.62-.184 8.036 8.036 0 0 1 3.434.643 5.109 5.109 0 0 1 2.113 1.815 7.543 7.543 0 0 1 1.057 2.8 20.584 20.584 0 0 1 .287 3.607v10.868h-4.135V87.379a10.421 10.421 0 0 0-.677-4.379 2.672 2.672 0 0 0-2.63-1.344 4.95 4.95 0 0 0-1.884.356 5.4 5.4 0 0 0-1.332.689 10.5 10.5 0 0 1 .379 1.953c.069.689.1 1.424.1 2.217v10.674h-4.135V87.368z" class="cls-1" data-name="Path 104" transform="translate(-822.2 -72.379)"/>
        <path id="Path_105" d="M1075.713 77.2a9.421 9.421 0 0 1 3.446.551 5.518 5.518 0 0 1 2.24 1.551 5.933 5.933 0 0 1 1.195 2.424 12.679 12.679 0 0 1 .356 3.124v11.716c-.643.149-1.6.322-2.883.54a27.58 27.58 0 0 1-4.353.31 12.38 12.38 0 0 1-2.94-.333 5.875 5.875 0 0 1-2.274-1.068 5.017 5.017 0 0 1-1.47-1.918 7.081 7.081 0 0 1-.528-2.917 5.947 5.947 0 0 1 .6-2.8 5.189 5.189 0 0 1 1.62-1.861 6.766 6.766 0 0 1 2.378-1.034 12.5 12.5 0 0 1 2.814-.31 12.694 12.694 0 0 1 1.436.092 11.591 11.591 0 0 1 1.608.31v-.735a6.233 6.233 0 0 0-.172-1.482 3.118 3.118 0 0 0-.6-1.241 2.85 2.85 0 0 0-1.126-.827 4.6 4.6 0 0 0-1.757-.3 14.329 14.329 0 0 0-2.63.218 11.442 11.442 0 0 0-1.953.517l-.517-3.618a15.56 15.56 0 0 1 2.286-.586 14.653 14.653 0 0 1 3.224-.323zm.345 16.655a14.253 14.253 0 0 0 2.906-.218v-4.951a7.945 7.945 0 0 0-.988-.218 9.1 9.1 0 0 0-1.436-.115 7.976 7.976 0 0 0-1.378.115 3.978 3.978 0 0 0-1.263.4 2.329 2.329 0 0 0-.907.827 2.97 2.97 0 0 0 .574 3.538 4.308 4.308 0 0 0 2.492.622z" class="cls-1" data-name="Path 105" transform="translate(-1040.209 -71.847)"/>
        <path id="Path_106" d="M1248.577 82.234a12.548 12.548 0 0 0-1.413-.391 9.575 9.575 0 0 0-2.1-.207 7.2 7.2 0 0 0-1.447.149 7.7 7.7 0 0 0-1.08.264v15.484h-4.137v-18.4a21.542 21.542 0 0 1 2.986-.907 17.077 17.077 0 0 1 3.974-.425c.276 0 .6.023.953.057s.724.092 1.091.149.712.138 1.057.218a7.573 7.573 0 0 1 .816.241z" class="cls-1" data-name="Path 106" transform="translate(-1190.594 -72.379)"/>
        <path id="Path_107" d="M1356.223 31.335l4.135-.735v5.835h6.352v3.733h-6.352v7.868a6.124 6.124 0 0 0 .678 3.32 2.611 2.611 0 0 0 2.32 1 6.686 6.686 0 0 0 2-.264 11.32 11.32 0 0 0 1.378-.482l.678 3.549a14.641 14.641 0 0 1-1.884.678 9.626 9.626 0 0 1-2.734.356 8.083 8.083 0 0 1-3.193-.551 4.8 4.8 0 0 1-2.033-1.608 6.572 6.572 0 0 1-1.057-2.55 16.978 16.978 0 0 1-.31-3.423V31.335z" class="cls-1" data-name="Path 107" transform="translate(-1294.864 -30.6)"/>
    </g>
    <g id="Group_108" data-name="Group 108">
        <path id="Path_108" d="M11.67 48.517a11.866 11.866 0 0 1-4.594-.884 10.368 10.368 0 0 1-3.7-2.584 12.172 12.172 0 0 1-2.47-4.192A16.585 16.585 0 0 1 0 35.147a15.489 15.489 0 0 1 .976-5.709 12.615 12.615 0 0 1 2.607-4.192 10.8 10.8 0 0 1 3.767-2.573 11.862 11.862 0 0 1 4.468-.873 16.525 16.525 0 0 1 2.619.184 14.77 14.77 0 0 1 2.068.459 15.719 15.719 0 0 1 1.516.551 9 9 0 0 1 .965.494l-.816 2.182a15.157 15.157 0 0 0-2.343-1.091 10.118 10.118 0 0 0-3.526-.54 10.111 10.111 0 0 0-4.192.816A8.36 8.36 0 0 0 5.1 27.141a10.148 10.148 0 0 0-1.826 3.538 15.811 15.811 0 0 0-.609 4.5 16.239 16.239 0 0 0 .609 4.594 9.758 9.758 0 0 0 1.792 3.492 7.946 7.946 0 0 0 2.894 2.22 9.5 9.5 0 0 0 3.94.781 15.168 15.168 0 0 0 4.078-.459 11.792 11.792 0 0 0 2.493-.942l.7 2.148a4.249 4.249 0 0 1-.884.425c-.414.161-.953.322-1.585.494a18.183 18.183 0 0 1-2.217.425 23.125 23.125 0 0 1-2.815.16z" class="cls-2" data-name="Path 108" transform="translate(0 -19.296)"/>
        <path id="Path_109" d="M187.5 28.67V.448L189.9 0v10.119a15 15 0 0 1 2.4-.689 12.591 12.591 0 0 1 2.435-.241 9.378 9.378 0 0 1 3.7.632 5.65 5.65 0 0 1 2.366 1.792 7.128 7.128 0 0 1 1.241 2.791 17.217 17.217 0 0 1 .356 3.584v10.67H200v-9.9a18.113 18.113 0 0 0-.276-3.434 5.78 5.78 0 0 0-.919-2.286 3.647 3.647 0 0 0-1.723-1.275 7.846 7.846 0 0 0-2.7-.391 8.066 8.066 0 0 0-1.344.115q-.724.1-1.344.241c-.413.092-.793.184-1.126.276a6.164 6.164 0 0 0-.643.218v16.436H187.5z" class="cls-2" data-name="Path 109" transform="translate(-165.963)"/>
        <path id="Path_110" d="M361.659 89.416a12.483 12.483 0 0 1-.643 4.1 9.154 9.154 0 0 1-1.815 3.136 8.25 8.25 0 0 1-2.757 2.01 8.478 8.478 0 0 1-9.786-2.01 9.154 9.154 0 0 1-1.815-3.136 12.19 12.19 0 0 1-.643-4.1 12.486 12.486 0 0 1 .643-4.1 9.185 9.185 0 0 1 1.815-3.159 8.159 8.159 0 0 1 2.757-2.033 8.9 8.9 0 0 1 7.03 0 8.273 8.273 0 0 1 2.757 2.033 9.372 9.372 0 0 1 1.815 3.159 12.189 12.189 0 0 1 .642 4.1zm-2.538 0a8.977 8.977 0 0 0-1.665-5.709 5.833 5.833 0 0 0-9.005 0 9.047 9.047 0 0 0-1.665 5.709 8.886 8.886 0 0 0 1.664 5.684 5.873 5.873 0 0 0 9.005 0 8.955 8.955 0 0 0 1.666-5.684z" class="cls-2" data-name="Path 110" transform="translate(-304.665 -70.28)"/>
        <path id="Path_111" d="M524.551 99.44a10.142 10.142 0 0 1-3.917-.7 7.338 7.338 0 0 1-2.826-2.01 9.2 9.2 0 0 1-1.723-3.136 14.178 14.178 0 0 1 .023-8.144 9.2 9.2 0 0 1 1.757-3.182 7.636 7.636 0 0 1 2.768-2.045 8.862 8.862 0 0 1 3.653-.724 15.314 15.314 0 0 1 2.894.264 7.211 7.211 0 0 1 2.091.666l-.631 2.071a7.468 7.468 0 0 0-1.665-.586 10.941 10.941 0 0 0-2.47-.218 5.863 5.863 0 0 0-4.824 2.045 9.131 9.131 0 0 0-1.642 5.823 12.672 12.672 0 0 0 .367 3.124 6.066 6.066 0 0 0 1.206 2.435 5.5 5.5 0 0 0 2.148 1.585 8.015 8.015 0 0 0 3.193.574 8.121 8.121 0 0 0 2.607-.356 9.591 9.591 0 0 0 1.528-.609l.517 2.068a9.64 9.64 0 0 1-2.09.724 13.015 13.015 0 0 1-2.964.331z" class="cls-2" data-name="Path 111" transform="translate(-456.289 -70.368)"/>
        <path id="Path_112" d="M664.659 89.416a12.486 12.486 0 0 1-.643 4.1 9.156 9.156 0 0 1-1.815 3.136 8.25 8.25 0 0 1-2.757 2.01 8.479 8.479 0 0 1-9.786-2.01 9.153 9.153 0 0 1-1.815-3.136 12.192 12.192 0 0 1-.643-4.1 12.486 12.486 0 0 1 .643-4.1 9.185 9.185 0 0 1 1.815-3.159 8.159 8.159 0 0 1 2.757-2.033 8.9 8.9 0 0 1 7.03 0 8.274 8.274 0 0 1 2.757 2.033 9.375 9.375 0 0 1 1.815 3.159 12.486 12.486 0 0 1 .642 4.1zm-2.55 0a8.977 8.977 0 0 0-1.666-5.709 5.833 5.833 0 0 0-9.005 0 9.047 9.047 0 0 0-1.666 5.709 8.886 8.886 0 0 0 1.666 5.686 5.873 5.873 0 0 0 9.005 0 8.886 8.886 0 0 0 1.666-5.686z" class="cls-2" data-name="Path 112" transform="translate(-572.862 -70.28)"/>
    </g>
    <g id="Group_109" data-name="Group 109" transform="translate(.31 37.273)">
        <path id="Path_113" d="M9.833 326.4v8.488h-1.47v-6.467c-.322.414-.689.9-1.08 1.459s-.783 1.126-1.172 1.72-.77 1.183-1.126 1.757-.666 1.091-.93 1.539H2.7v-8.488h1.47v6.111c.287-.471.609-.988.965-1.539s.735-1.114 1.114-1.665.77-1.08 1.16-1.585.747-.942 1.091-1.31h1.333z" class="cls-2" data-name="Path 113" transform="translate(-2.7 -326.182)"/>
        <path id="Path_114" d="M87.361 334.988h-1.517v-3.756h-3.916v3.756H80.4V326.5h1.516v3.457h3.917V326.5h1.528z" class="cls-2" data-name="Path 114" transform="translate(-71.475 -326.27)"/>
        <path id="Path_115" d="M154.63 326.4v1.275h-2.757v7.225h-1.516v-7.225H147.6V326.4z" class="cls-2" data-name="Path 115" transform="translate(-130.957 -326.182)"/>
        <path id="Path_116" d="M211.2 328.98a5.376 5.376 0 0 1 .322-1.964 4.256 4.256 0 0 1 .861-1.4 3.648 3.648 0 0 1 1.241-.839 3.889 3.889 0 0 1 1.436-.276 3.264 3.264 0 0 1 2.63 1.068 4.935 4.935 0 0 1 .919 3.262v.253a2.306 2.306 0 0 1-.011.287h-5.812a3.123 3.123 0 0 0 .77 2.01 2.813 2.813 0 0 0 2.09.689 5.554 5.554 0 0 0 1.344-.138 5.462 5.462 0 0 0 .827-.264l.207 1.275a3.878 3.878 0 0 1-.976.31 7.211 7.211 0 0 1-1.574.161 5.114 5.114 0 0 1-1.918-.333 3.5 3.5 0 0 1-1.332-.919 3.884 3.884 0 0 1-.781-1.4 6.671 6.671 0 0 1-.243-1.782zm5.835-.827a2.515 2.515 0 0 0-.517-1.688 1.785 1.785 0 0 0-1.459-.666 1.97 1.97 0 0 0-.919.207 2.2 2.2 0 0 0-.678.528 2.551 2.551 0 0 0-.436.747 3.915 3.915 0 0 0-.207.861h4.215z" class="cls-2" data-name="Path 116" transform="translate(-187.251 -324.5)"/>
        <path id="Path_117" d="M295.277 329.157a5.852 5.852 0 0 1-.253 1.78 4 4 0 0 1-.747 1.4 3.311 3.311 0 0 1-1.206.919 3.81 3.81 0 0 1-1.62.322 4.059 4.059 0 0 1-1.3-.2 3.454 3.454 0 0 1-.839-.379v3.4H287.8v-11.251c.356-.092.8-.184 1.344-.287a9.978 9.978 0 0 1 1.872-.161 4.8 4.8 0 0 1 1.769.31 3.86 3.86 0 0 1 1.344.884 4.009 4.009 0 0 1 .861 1.4 5.963 5.963 0 0 1 .287 1.863zm-1.585 0a3.237 3.237 0 0 0-.735-2.286 2.57 2.57 0 0 0-1.964-.8 8.619 8.619 0 0 0-1.068.046 4.151 4.151 0 0 0-.609.115v5.353a3 3 0 0 0 .8.436 3.052 3.052 0 0 0 1.149.207 2.382 2.382 0 0 0 1.114-.241 2.1 2.1 0 0 0 .758-.655 2.9 2.9 0 0 0 .425-.976 5.447 5.447 0 0 0 .13-1.199z" class="cls-2" data-name="Path 117" transform="translate(-255.053 -324.677)"/>
        <path id="Path_118" d="M371.449 334.988h-1.516v-3.756h-3.917v3.756H364.5V326.5h1.516v3.457h3.917V326.5h1.516z" class="cls-2" data-name="Path 118" transform="translate(-322.943 -326.27)"/>
        <path id="Path_119" d="M436.5 328.98a5.376 5.376 0 0 1 .322-1.964 4.256 4.256 0 0 1 .861-1.4 3.648 3.648 0 0 1 1.241-.839 3.889 3.889 0 0 1 1.436-.276 3.264 3.264 0 0 1 2.63 1.068 4.935 4.935 0 0 1 .919 3.262v.253a2.315 2.315 0 0 1-.011.287h-5.812a3.123 3.123 0 0 0 .77 2.01 2.813 2.813 0 0 0 2.09.689 5.554 5.554 0 0 0 1.344-.138 5.458 5.458 0 0 0 .827-.264l.207 1.275a3.878 3.878 0 0 1-.976.31 7.212 7.212 0 0 1-1.574.161 5.113 5.113 0 0 1-1.918-.333 3.5 3.5 0 0 1-1.332-.919 3.885 3.885 0 0 1-.781-1.4 6.238 6.238 0 0 1-.243-1.782zm5.823-.827a2.515 2.515 0 0 0-.517-1.688 1.785 1.785 0 0 0-1.459-.666 1.97 1.97 0 0 0-.919.207 2.2 2.2 0 0 0-.678.528 2.551 2.551 0 0 0-.436.747 3.913 3.913 0 0 0-.207.861h4.215z" class="cls-2" data-name="Path 119" transform="translate(-386.673 -324.5)"/>
        <path id="Path_120" d="M511.029 326.4v1.275h-2.757v7.225h-1.516v-7.225H504V326.4z" class="cls-2" data-name="Path 120" transform="translate(-446.42 -326.182)"/>
        <path id="Path_121" d="M589.8 351.6h4.032v1.424H589.8z" class="cls-2" data-name="Path 121" transform="translate(-522.365 -348.487)"/>
        <path id="Path_122" d="M663.861 327.763h-3.744v7.225H658.6V326.5h5.261z" class="cls-2" data-name="Path 122" transform="translate(-583.262 -326.27)"/>
        <path id="Path_123" d="M718.133 326.4v8.488h-1.47v-6.467c-.322.414-.689.9-1.08 1.459s-.781 1.126-1.172 1.723-.77 1.183-1.126 1.757-.666 1.091-.93 1.539H711v-8.488h1.47v6.111c.287-.471.609-.988.965-1.539s.735-1.114 1.114-1.665.77-1.08 1.16-1.585.747-.942 1.091-1.31h1.332z" class="cls-2" data-name="Path 123" transform="translate(-629.643 -326.182)"/>
        <path id="Path_124" d="M795.523 334.988h-1.516v-7.225h-3.79v7.225H788.7V326.5h6.823z" class="cls-2" data-name="Path 124" transform="translate(-698.419 -326.27)"/>
        <path id="Path_125" d="M859.6 328.98a5.376 5.376 0 0 1 .322-1.964 4.257 4.257 0 0 1 .861-1.4 3.648 3.648 0 0 1 1.241-.839 3.89 3.89 0 0 1 1.436-.276 3.265 3.265 0 0 1 2.63 1.068 4.936 4.936 0 0 1 .919 3.262v.253a2.321 2.321 0 0 1-.011.287h-5.812a3.124 3.124 0 0 0 .77 2.01 2.813 2.813 0 0 0 2.091.689 5.554 5.554 0 0 0 1.344-.138 5.459 5.459 0 0 0 .827-.264l.207 1.275a3.878 3.878 0 0 1-.976.31 7.212 7.212 0 0 1-1.574.161 5.114 5.114 0 0 1-1.918-.333 3.5 3.5 0 0 1-1.332-.919 3.884 3.884 0 0 1-.781-1.4 6.671 6.671 0 0 1-.244-1.782zm5.835-.827a2.514 2.514 0 0 0-.517-1.688 1.785 1.785 0 0 0-1.459-.666 1.969 1.969 0 0 0-.919.207 2.2 2.2 0 0 0-.678.528 2.553 2.553 0 0 0-.436.747 3.92 3.92 0 0 0-.207.861h4.215z" class="cls-2" data-name="Path 125" transform="translate(-761.175 -324.5)"/>
        <path id="Path_126" d="M943.677 329.157a5.848 5.848 0 0 1-.253 1.78 4 4 0 0 1-.746 1.4 3.313 3.313 0 0 1-1.206.919 3.811 3.811 0 0 1-1.62.322 4.059 4.059 0 0 1-1.3-.2 3.455 3.455 0 0 1-.839-.379v3.4H936.2v-11.251c.356-.092.8-.184 1.344-.287a9.98 9.98 0 0 1 1.872-.161 4.8 4.8 0 0 1 1.769.31 3.968 3.968 0 0 1 1.344.884 4.009 4.009 0 0 1 .861 1.4 5.963 5.963 0 0 1 .287 1.863zm-1.585 0a3.237 3.237 0 0 0-.735-2.286 2.57 2.57 0 0 0-1.964-.8 8.616 8.616 0 0 0-1.068.046 4.151 4.151 0 0 0-.609.115v5.353a3 3 0 0 0 .8.436 3.051 3.051 0 0 0 1.148.207 2.382 2.382 0 0 0 1.114-.241 2.094 2.094 0 0 0 .758-.655 2.9 2.9 0 0 0 .425-.976 5.451 5.451 0 0 0 .131-1.199z" class="cls-2" data-name="Path 126" transform="translate(-828.976 -324.677)"/>
        <path id="Path_127" d="M1012.826 328.728c-.1 1.08-.2 2.148-.241 3.228s-.1 2.079-.126 3.032H1011c.023-.666.057-1.355.1-2.079s.092-1.459.149-2.194.115-1.459.184-2.171.138-1.4.207-2.045h1.39c.345.563.758 1.344 1.229 2.332s1.011 2.125 1.62 3.4a537.15 537.15 0 0 1 1.62-3.4 25.049 25.049 0 0 1 1.229-2.332h1.4c.08.655.149 1.332.207 2.045s.126 1.436.184 2.171.1 1.47.149 2.194.08 1.413.1 2.079h-1.5c-.034-.942-.08-1.953-.126-3.032s-.138-2.148-.241-3.228c-.172.333-.379.747-.609 1.218s-.459.953-.678 1.447-.436.953-.631 1.4-.345.8-.46 1.057h-1.275c-.115-.276-.276-.632-.483-1.08s-.413-.919-.632-1.413-.448-.976-.678-1.459c-.261-.458-.455-.86-.629-1.17z" class="cls-2" data-name="Path 127" transform="translate(-895.185 -326.27)"/>
        <path id="Path_128" d="M1107.654 324.6a4.287 4.287 0 0 1 1.539.241 2.551 2.551 0 0 1 1.011.666 2.637 2.637 0 0 1 .551 1.034 5.242 5.242 0 0 1 .161 1.309v5.307c-.126.023-.31.057-.552.092s-.494.069-.792.1-.609.057-.953.092-.677.046-1.022.046a5.283 5.283 0 0 1-1.321-.149 3 3 0 0 1-1.045-.471 2.137 2.137 0 0 1-.689-.839 2.968 2.968 0 0 1-.241-1.252 2.345 2.345 0 0 1 .287-1.206 2.309 2.309 0 0 1 .781-.816 3.7 3.7 0 0 1 1.149-.459 5.939 5.939 0 0 1 1.367-.149c.149 0 .31.011.471.023a3.105 3.105 0 0 1 .471.069c.149.023.276.057.379.069s.184.034.23.046v-.425a3.291 3.291 0 0 0-.08-.747 1.7 1.7 0 0 0-.3-.655 1.438 1.438 0 0 0-.574-.459 2.247 2.247 0 0 0-.953-.172 7.2 7.2 0 0 0-1.309.1 4.958 4.958 0 0 0-.838.218l-.184-1.252a4.246 4.246 0 0 1 .976-.253 8.619 8.619 0 0 1 1.48-.108zm.126 7.6c.356 0 .678-.012.953-.023a3.461 3.461 0 0 0 .689-.092v-2.527a1.7 1.7 0 0 0-.528-.138 6.387 6.387 0 0 0-.9-.057 5.331 5.331 0 0 0-.724.046 2.261 2.261 0 0 0-.7.207 1.466 1.466 0 0 0-.529.425 1.141 1.141 0 0 0-.207.712 1.222 1.222 0 0 0 .528 1.137 2.743 2.743 0 0 0 1.418.31z" class="cls-2" data-name="Path 128" transform="translate(-977.768 -324.588)"/>
        <path id="Path_129" d="M1184.278 329.157a5.848 5.848 0 0 1-.253 1.78 4 4 0 0 1-.747 1.4 3.309 3.309 0 0 1-1.206.919 3.81 3.81 0 0 1-1.62.322 4.059 4.059 0 0 1-1.3-.2 3.455 3.455 0 0 1-.839-.379v3.4h-1.513v-11.251c.356-.092.8-.184 1.344-.287a9.975 9.975 0 0 1 1.872-.161 4.8 4.8 0 0 1 1.769.31 3.967 3.967 0 0 1 1.344.884 4.009 4.009 0 0 1 .861 1.4 5.963 5.963 0 0 1 .288 1.863zm-1.585 0a3.237 3.237 0 0 0-.735-2.286 2.569 2.569 0 0 0-1.964-.8 8.625 8.625 0 0 0-1.068.046 4.157 4.157 0 0 0-.609.115v5.353a3 3 0 0 0 .8.436 3.052 3.052 0 0 0 1.149.207 2.382 2.382 0 0 0 1.114-.241 2.094 2.094 0 0 0 .758-.655 2.9 2.9 0 0 0 .425-.976 5.451 5.451 0 0 0 .129-1.199z" class="cls-2" data-name="Path 129" transform="translate(-1041.941 -324.677)"/>
        <path id="Path_130" d="M1256.678 330.271a11.063 11.063 0 0 1 1.091.907 16.052 16.052 0 0 1 1.149 1.183c.368.425.724.861 1.057 1.3s.609.85.839 1.229h-1.792a13.064 13.064 0 0 0-.839-1.137 18.453 18.453 0 0 0-2.057-2.114 9.864 9.864 0 0 0-1.011-.77v4.02h-1.515V326.4h1.516v3.641c.264-.253.563-.54.9-.873s.678-.666 1.022-1.011.666-.666.953-.976.528-.574.723-.781h1.769a53.052 53.052 0 0 1-1.839 1.922 76.27 76.27 0 0 0-1.022 1.034c-.37.344-.668.644-.944.915z" class="cls-2" data-name="Path 130" transform="translate(-1109.919 -326.182)"/>
        <path id="Path_131" d="M1314.8 328.98a5.375 5.375 0 0 1 .322-1.964 4.257 4.257 0 0 1 .861-1.4 3.65 3.65 0 0 1 1.241-.839 3.889 3.889 0 0 1 1.436-.276 3.264 3.264 0 0 1 2.63 1.068 4.935 4.935 0 0 1 .919 3.262v.253a2.309 2.309 0 0 1-.011.287h-5.812a3.122 3.122 0 0 0 .77 2.01 2.812 2.812 0 0 0 2.09.689 5.552 5.552 0 0 0 1.344-.138 5.447 5.447 0 0 0 .827-.264l.207 1.275a3.879 3.879 0 0 1-.976.31 7.211 7.211 0 0 1-1.574.161 5.112 5.112 0 0 1-1.918-.333 3.5 3.5 0 0 1-1.333-.919 3.887 3.887 0 0 1-.781-1.4 6.233 6.233 0 0 1-.242-1.782zm5.835-.827a2.516 2.516 0 0 0-.517-1.688 1.786 1.786 0 0 0-1.459-.666 1.969 1.969 0 0 0-.919.207 2.2 2.2 0 0 0-.678.528 2.548 2.548 0 0 0-.437.747 3.919 3.919 0 0 0-.207.861h4.215z" class="cls-2" data-name="Path 131" transform="translate(-1164.09 -324.5)"/>
        <path id="Path_132" d="M1389.329 326.4v1.275h-2.757v7.225h-1.516v-7.225h-2.756V326.4z" class="cls-2" data-name="Path 132" transform="translate(-1223.836 -326.182)"/>
    </g>
</svg>
