<svg xmlns="http://www.w3.org/2000/svg" viewBox="0 0 28.208 33.163">
    <defs>
        <style>
            .cls-1{fill:#dadada}
        </style>
    </defs>
    <g id="avatar_2_" data-name="avatar (2)" transform="translate(-36.073)">
        <g id="Group_1081" data-name="Group 1081" transform="translate(36.073)">
            <path id="Path_1085" d="M144.129 17.869h.22a6.337 6.337 0 0 0 4.842-2.095c2.644-2.98 2.2-8.09 2.156-8.577-.172-3.66-1.9-5.412-3.331-6.229A7.635 7.635 0 0 0 144.321 0h-.121a7.647 7.647 0 0 0-3.695.941c-1.442.817-3.2 2.568-3.372 6.256-.048.488-.488 5.6 2.156 8.577a6.312 6.312 0 0 0 4.84 2.095zm-5.157-10.5c0-.021.007-.041.007-.055.221-4.924 3.721-5.453 5.221-5.453h.082c1.854.041 5.006.8 5.219 5.453a.134.134 0 0 0 .007.055c.007.048.488 4.718-1.7 7.177a4.5 4.5 0 0 1-3.537 1.47h-.071a4.486 4.486 0 0 1-3.53-1.47c-2.17-2.446-1.705-7.136-1.699-7.177z" class="cls-1" data-name="Path 1085" transform="translate(-130.145)"/>
            <path id="Path_1086" d="M64.279 267.784v-.021c0-.055-.007-.11-.007-.172-.041-1.36-.13-4.539-3.111-5.556l-.069-.021a19.815 19.815 0 0 1-5.7-2.6.927.927 0 0 0-1.064 1.518A21.39 21.39 0 0 0 60.6 263.8c1.6.57 1.779 2.28 1.827 3.846a1.379 1.379 0 0 0 .007.172 12.465 12.465 0 0 1-.144 2.122 25.274 25.274 0 0 1-12.107 2.816 25.419 25.419 0 0 1-12.114-2.823 11.8 11.8 0 0 1-.144-2.122c0-.055.007-.11.007-.172.048-1.566.227-3.276 1.827-3.846a21.589 21.589 0 0 0 6.27-2.864.927.927 0 1 0-1.064-1.518 19.6 19.6 0 0 1-5.7 2.6c-.027.007-.048.014-.069.021-2.98 1.023-3.07 4.2-3.111 5.556a1.379 1.379 0 0 1-.007.172v.021a10.531 10.531 0 0 0 .35 3.111.881.881 0 0 0 .357.433c.206.137 5.144 3.283 13.405 3.283s13.2-3.152 13.405-3.283a.919.919 0 0 0 .357-.433 11.048 11.048 0 0 0 .327-3.108z" class="cls-1" data-name="Path 1086" transform="translate(-36.073 -241.441)"/>
        </g>
    </g>
</svg>
