<svg xmlns="http://www.w3.org/2000/svg" id="shopping-cart_1_" data-name="shopping-cart (1)" viewBox="0 0 20 20">
    <path id="Path_147" d="M22.9 13.169h11.859A2.365 2.365 0 0 0 37.2 10.9V6.214a.049.049 0 0 0 0-.025V6.16v-.025a.249.249 0 0 1-.009-.029c0-.008 0-.016-.009-.025s0-.016-.009-.025a.193.193 0 0 1-.013-.029.089.089 0 0 0-.013-.021l-.013-.025c0-.008-.009-.012-.013-.021s-.013-.016-.018-.025a.073.073 0 0 0-.018-.021c0-.008-.013-.012-.018-.021s-.013-.012-.018-.021-.013-.012-.018-.016L37 5.84c-.009 0-.013-.012-.022-.016s-.018-.012-.027-.016l-.022-.012a.093.093 0 0 1-.027-.016l-.027-.012-.027-.012-.027-.012c-.009 0-.018 0-.027-.008a.087.087 0 0 0-.031-.008.2.2 0 0 1-.022 0 .1.1 0 0 0-.035 0h-.018L21.657 3.785V1.836a.235.235 0 0 0 0-.058.029.029 0 0 0 0-.016v-.037c0-.012 0-.021-.009-.033s0-.012 0-.021l-.013-.037v-.016a.12.12 0 0 0-.018-.033s0-.012-.009-.016a.086.086 0 0 0-.018-.025c0-.008-.009-.012-.013-.021s-.009-.012-.013-.021-.013-.016-.018-.025l-.013-.012-.027-.025-.013-.012a.189.189 0 0 0-.031-.025l-.018-.012c-.005-.004-.018-.012-.027-.021s-.027-.016-.035-.021-.009 0-.013-.008l-.058-.025L18.03.044a.614.614 0 0 0-.783.3.541.541 0 0 0 .318.728L20.459 2.2v12.161a2.336 2.336 0 0 0 2.128 2.248 2.124 2.124 0 0 0-.345 1.151 2.417 2.417 0 0 0 4.821 0 2.081 2.081 0 0 0-.332-1.13H32.1a2.092 2.092 0 0 0-.332 1.13 2.417 2.417 0 0 0 4.821 0 2.336 2.336 0 0 0-2.411-2.24H22.9a1.207 1.207 0 0 1-1.247-1.159v-1.5a2.614 2.614 0 0 0 1.247.308zm2.972 4.587a1.22 1.22 0 1 1-1.216-1.13 1.178 1.178 0 0 1 1.217 1.13zm9.527 0a1.22 1.22 0 1 1-1.216-1.13 1.178 1.178 0 0 1 1.217 1.13zm-.641-5.7H22.9a1.207 1.207 0 0 1-1.247-1.156v-6l14.353 1.84v4.16a1.208 1.208 0 0 1-1.247 1.159z" style="fill:#454d4f" data-name="Path 147" transform="translate(-17.2)"/>
</svg>
