<svg xmlns="http://www.w3.org/2000/svg" viewBox="0 0 29.947 32.24">
    <g id="shopping-cart_3_" data-name="shopping-cart (3)" transform="translate(-17.25)">
        <g id="Group_1086" data-name="Group 1086" transform="translate(17.25)">
            <path id="Path_1089" d="M222.135 130.207a.8.8 0 0 0 .565.233.812.812 0 0 0 .565-.233l4.913-4.913a.8.8 0 1 0-1.13-1.13l-4.348 4.355-1.755-1.755a.8.8 0 1 0-1.13 1.13z" class="cls-1" data-name="Path 1089" transform="translate(-206.129 -115.691)"/>
            <path id="Path_1090" d="M25.744 21.165H43.62a3.582 3.582 0 0 0 3.58-3.577v-7.532a.8.8 0 1 0-1.6 0v7.526a1.982 1.982 0 0 1-1.981 1.981H25.744a1.982 1.982 0 0 1-1.981-1.981V2.876a.379.379 0 0 0-.007-.086v-.02c0-.02-.007-.04-.007-.053a.123.123 0 0 0-.013-.047c0-.007-.007-.02-.007-.027s-.013-.033-.02-.053-.007-.013-.007-.02-.013-.033-.02-.047-.007-.02-.013-.027l-.02-.04-.02-.033a.105.105 0 0 0-.02-.027.145.145 0 0 0-.027-.033l-.02-.02c-.013-.013-.02-.027-.033-.04s-.013-.013-.02-.013a.176.176 0 0 0-.04-.033l-.02-.02c-.013-.007-.027-.02-.04-.027s-.033-.02-.047-.033a.014.014 0 0 1-.013-.013l-.08-.04-4.911-2.06a.8.8 0 1 0-.618 1.469L22.16 3.4v19.786a3.577 3.577 0 0 0 3.278 3.563 3.535 3.535 0 1 0 5.9.013H39.8a3.538 3.538 0 1 0 2.958-1.6H25.744a1.982 1.982 0 0 1-1.981-1.981V20.56a3.556 3.556 0 0 0 1.981.605zm4.58 7.535a1.941 1.941 0 1 1-1.941-1.941 1.944 1.944 0 0 1 1.941 1.941zm14.373 0a1.941 1.941 0 1 1-1.941-1.941A1.944 1.944 0 0 1 44.7 28.7z" class="cls-1" data-name="Path 1090" transform="translate(-17.25)"/>
        </g>
    </g>
</svg>
